<?xml version="1.0" standalone="no"?><!DOCTYPE svg PUBLIC "-//W3C//DTD SVG 1.1//EN" "http://www.w3.org/Graphics/SVG/1.1/DTD/svg11.dtd"><svg t="1595903872878" class="icon" viewBox="0 0 1024 1024" version="1.1" xmlns="http://www.w3.org/2000/svg" p-id="4628" width="32" height="32" xmlns:xlink="http://www.w3.org/1999/xlink"><defs><style type="text/css"></style></defs><path d="M512 451.669333L421.504 361.130667A42.666667 42.666667 0 0 0 361.130667 421.546667L451.669333 512l-90.538666 90.496a42.666667 42.666667 0 0 0 60.373333 60.373333L512 572.330667l90.496 90.538666a42.666667 42.666667 0 0 0 60.373333-60.373333L572.330667 512l90.538666-90.496a42.666667 42.666667 0 1 0-60.373333-60.373333L512 451.669333z m-271.530667 331.861334A384 384 0 1 1 783.530667 240.469333 384 384 0 0 1 240.469333 783.530667z" p-id="4629" fill="#ffffff"></path></svg>