<svg xmlns="http://www.w3.org/2000/svg" width="28" height="28" viewBox="0 0 28 28">
    <g fill="none" fill-rule="evenodd">
        <path d="M0 0H28V28H0z"/>
        <path fill="#FFF" d="M23.294 4c.396 0 .706.31.706.706v18.588c0 .396-.31.706-.706.706H4.654c-.051 0-.103 0-.154-.017 0 0-.018-.017-.035-.017-.017-.018-.017-.018-.034-.018-.018-.017-.052-.017-.07-.034 0-.017-.016-.017-.016-.017l-.018-.018c-.017-.017-.034-.017-.051-.034 0 0 0-.017-.018-.017l-.034-.035-.017-.017c-.018-.034-.052-.052-.07-.086l-.016-.017c0-.018-.018-.018-.018-.035 0-.017-.017-.017-.017-.034l-.052-.12c-.017 0-.017 0-.017-.018v-.034c0-.052-.017-.121-.017-.173V4.706C4 4.31 4.31 4 4.706 4zM12.019 15.468L6.105 19.77v2.37l7.369-5.17-1.455-1.503zm6.09.635l-8.846 5.963h12.821V20l-3.975-3.897zm3.786-9.998H6.105v11.58l5.858-3.916c.253-.168.584-.134.805.1l2.1 2.242 3.016-2.108c.253-.167.584-.134.805.084l3.206 3.246V6.105zm-5.869 3.158c.829 0 1.5.672 1.5 1.5 0 .829-.671 1.5-1.5 1.5-.828 0-1.5-.671-1.5-1.5 0-.828.672-1.5 1.5-1.5z"/>
    </g>
</svg>
