<svg xmlns="http://www.w3.org/2000/svg" width="28" height="28" viewBox="0 0 28 28">
    <g fill="none" fill-rule="evenodd">
        <path d="M0 0H28V28H0z"/>
        <path fill="#FFF" d="M8.209 6.794L14 12.585l5.792-5.791c.391-.391 1.025-.391 1.415 0 .391.39.391 1.024 0 1.415L15.416 14l5.791 5.792c.391.391.391 1.025 0 1.415-.39.391-1.024.391-1.415 0L14 15.416l-5.791 5.791c-.39.391-1.024.391-1.415 0-.391-.39-.391-1.024 0-1.415L12.585 14 6.794 8.209c-.391-.39-.391-1.024 0-1.415.39-.391 1.024-.391 1.415 0z"/>
    </g>
</svg>
