<svg xmlns="http://www.w3.org/2000/svg" width="22" height="22" viewBox="0 0 22 22">
    <g fill="none" fill-rule="evenodd">
        <path d="M0 0H22V22H0z"/>
        <g transform="translate(4 3)">
            <path stroke="#ADADAD" d="M2.966 5.395l-3.488.715 1.644 8.545 2.402-.804-.558-8.456z"/>
            <circle cx="1.5" cy="7.5" r="1" fill="#ADADAD"/>
            <path stroke="#ADADAD" d="M10.666 2.627c0-.365-.053-.693-.182-.957-.098-.2-.243-.358-.447-.454-.44-.207-1.084-.107-2.032.48-.397 1.19-1.232 3.52-2.636 4.804H3.5v7H11c.447 0 .89-.18 1.25-.46s.641-.667.75-1.098l1.03-4.127c.091-.361.036-.696-.154-.938-.191-.242-.507-.377-.885-.377H9.727c.406-1.217.939-2.935.939-3.873z"/>
        </g>
        <rect width="4" height="1" x="14" y="11.5" fill="#ADADAD" rx=".5"/>
        <rect width="3" height="1" x="14.4" y="13.5" fill="#ADADAD" rx=".5"/>
    </g>
</svg>
