<?xml version="1.0" standalone="no"?><!DOCTYPE svg PUBLIC "-//W3C//DTD SVG 1.1//EN" "http://www.w3.org/Graphics/SVG/1.1/DTD/svg11.dtd"><svg t="1597314295623" class="icon" viewBox="0 0 1024 1024" version="1.1" xmlns="http://www.w3.org/2000/svg" p-id="1131" width="16" height="16" xmlns:xlink="http://www.w3.org/1999/xlink"><defs><style type="text/css"></style></defs><path d="M224.256 142.848l-16.896 14.848v708.608l16.896 14.848c26.112 23.04 59.392 17.92 77.824-11.776 9.728-16.384 10.24-26.112 10.24-354.816 0-311.296-0.512-339.456-9.216-355.84-16.384-33.28-51.712-40.448-78.848-15.872zM16.896 247.808L2.56 260.096 1.024 502.272C0 678.4 1.536 748.544 5.632 759.296c8.192 19.968 23.552 29.184 48.128 29.184 16.896 0 24.064-3.072 36.352-15.872l14.848-15.36 1.536-223.744c1.024-122.88 0-233.472-1.536-245.248-1.536-12.288-9.216-28.672-15.872-37.376-17.408-20.48-50.176-21.504-72.192-3.072zM441.856 307.2c-6.144 2.56-15.36 10.752-20.48 18.432-8.192 12.8-9.216 30.208-10.752 163.328-1.024 81.408-0.512 160.768 1.536 175.616 4.096 34.816 18.432 51.712 46.592 55.808 18.432 2.56 23.552 0.512 38.4-12.8l17.408-15.36V331.776l-16.896-14.848c-16.896-15.36-34.304-18.432-55.808-9.728z" p-id="1132" fill="#45af7f"></path></svg>