<?xml version="1.0" standalone="no"?><!DOCTYPE svg PUBLIC "-//W3C//DTD SVG 1.1//EN" "http://www.w3.org/Graphics/SVG/1.1/DTD/svg11.dtd"><svg t="1594887092704" class="icon" viewBox="0 0 1024 1024" version="1.1" xmlns="http://www.w3.org/2000/svg" p-id="2771" width="16" height="16" xmlns:xlink="http://www.w3.org/1999/xlink"><defs><style type="text/css"></style></defs><path d="M512 303.104c-32.96 0-59.68-26.72-59.68-59.68l0-179.072c0-32.96 26.72-59.68 59.68-59.68s59.68 26.72 59.68 59.68l0 179.072c0 32.96-26.72 59.68-59.68 59.68z" p-id="2772" fill="#888888"></path><path d="M512 996.96c-20.608 0-37.312-16.704-37.312-37.312l0-179.072c0-20.608 16.704-37.312 37.312-37.312s37.312 16.704 37.312 37.312l0 179.072c0 20.608-16.704 37.312-37.312 37.312z" p-id="2773" fill="#888888"></path><path d="M377.76 335.36c-19.328 0-38.144-10.048-48.512-28l-89.536-155.072c-15.456-26.752-6.272-60.992 20.48-76.448s60.992-6.272 76.448 20.48l89.536 155.072c15.456 26.752 6.272 60.992-20.48 76.448-8.8 5.088-18.432 7.52-27.936 7.52z" p-id="2774" fill="#888888"></path><path d="M735.84 933.248c-11.616 0-22.88-6.016-29.12-16.8l-89.536-155.072c-9.28-16.064-3.776-36.576 12.288-45.856s36.576-3.776 45.856 12.288l89.536 155.072c9.28 16.064 3.776 36.576-12.288 45.856-5.28 3.04-11.072 4.512-16.768 4.512z" p-id="2775" fill="#888888"></path><path d="M279.328 429.952c-8.864 0-17.824-2.24-26.048-7.008l-155.072-89.536c-24.992-14.432-33.536-46.368-19.104-71.328s46.368-33.536 71.328-19.104l155.072 89.536c24.992 14.432 33.536 46.368 19.104 71.328-9.664 16.768-27.232 26.112-45.28 26.112z" p-id="2776" fill="#888888"></path><path d="M899.648 765.664c-5.056 0-10.208-1.28-14.88-4l-155.072-89.536c-14.272-8.256-19.168-26.496-10.912-40.768s26.496-19.168 40.768-10.912l155.072 89.536c14.272 8.256 19.168 26.496 10.912 40.768-5.536 9.568-15.552 14.912-25.888 14.912z" p-id="2777" fill="#888888"></path><path d="M243.424 560.48l-179.072 0c-26.784 0-48.512-21.696-48.512-48.48s21.696-48.48 48.512-48.48l179.072 0c26.784 0 48.512 21.696 48.512 48.48s-21.696 48.48-48.512 48.48z" p-id="2778" fill="#888888"></path><path d="M959.648 541.856c0 0 0 0 0 0l-179.072 0c-16.48 0-29.856-13.376-29.856-29.856s13.376-29.856 29.856-29.856c0 0 0 0 0 0l179.072 0c16.48 0 29.856 13.376 29.856 29.856s-13.376 29.856-29.856 29.856z" p-id="2779" fill="#888888"></path><path d="M124.352 780.608c-15.456 0-30.528-8.032-38.816-22.4-12.352-21.408-5.024-48.8 16.384-61.152l155.072-89.536c21.408-12.384 48.8-5.024 61.152 16.384s5.024 48.8-16.384 61.152l-155.072 89.536c-7.04 4.064-14.752 6.016-22.336 6.016z" p-id="2780" fill="#888888"></path><path d="M744.64 407.552c-10.304 0-20.352-5.344-25.888-14.912-8.256-14.272-3.36-32.512 10.912-40.768l155.072-89.536c14.272-8.224 32.512-3.36 40.768 10.912s3.36 32.512-10.912 40.768l-155.072 89.536c-4.704 2.72-9.824 4-14.88 4z" p-id="2781" fill="#888888"></path><path d="M288.128 940.704c-6.976 0-14.016-1.76-20.48-5.504-19.616-11.328-26.336-36.416-15.008-56.064l89.536-155.072c11.328-19.616 36.416-26.336 56.064-15.008s26.336 36.416 15.008 56.064l-89.536 155.072c-7.584 13.152-21.376 20.512-35.584 20.512z" p-id="2782" fill="#888888"></path><path d="M646.272 309.248c-5.056 0-10.208-1.28-14.88-4-14.272-8.256-19.168-26.496-10.912-40.768l89.536-155.072c8.256-14.272 26.496-19.168 40.768-10.912s19.168 26.496 10.912 40.768l-89.536 155.072c-5.536 9.568-15.552 14.912-25.888 14.912z" p-id="2783" fill="#888888"></path></svg>