<?xml version="1.0" encoding="UTF-8"?>
<svg id="eky473lfyjp1" xmlns="http://www.w3.org/2000/svg" xmlns:xlink="http://www.w3.org/1999/xlink" viewBox="0 0 38 38"
     shape-rendering="geometricPrecision" text-rendering="geometricPrecision">
  <style>
    <![CDATA[#eky473lfyjp3 {animation: eky473lfyjp3_c_o 3000ms linear infinite normal forwards}@keyframes eky473lfyjp3_c_o { 0% {opacity: 0.600000} 18.333333% {opacity: 0} 24.333333% {opacity: 0} 25% {opacity: 0.600000} 43.666667% {opacity: 0} 49.666667% {opacity: 0} 50% {opacity: 0.600000} 68.333333% {opacity: 0} 74.666667% {opacity: 0} 75% {opacity: 0.600000} 92.666667% {opacity: 0} 100% {opacity: 0} }#eky473lfyjp4 {animation: eky473lfyjp4_c_o 3000ms linear infinite normal forwards}@keyframes eky473lfyjp4_c_o { 0% {opacity: 0} 5.333333% {opacity: 0} 6.666667% {opacity: 0.600000} 25% {opacity: 0} 30.666667% {opacity: 0} 31.333333% {opacity: 0.600000} 50% {opacity: 0} 56% {opacity: 0} 56.333333% {opacity: 0.600000} 75.333333% {opacity: 0} 81% {opacity: 0} 81.333333% {opacity: 0.600000} 100% {opacity: 0} }#eky473lfyjp5 {animation: eky473lfyjp5_c_o 3000ms linear infinite normal forwards}@keyframes eky473lfyjp5_c_o { 0% {opacity: 0} 11.333333% {opacity: 0} 12.333333% {opacity: 0.600000} 29.666667% {opacity: 0} 37% {opacity: 0} 37.333333% {opacity: 0.600000} 55.333333% {opacity: 0} 62% {opacity: 0} 62.333333% {opacity: 0.600000} 81.333333% {opacity: 0} 100% {opacity: 0} }#eky473lfyjp6 {animation: eky473lfyjp6_c_o 3000ms linear infinite normal forwards}@keyframes eky473lfyjp6_c_o { 0% {opacity: 0} 17.333333% {opacity: 0} 18.666667% {opacity: 0.600000} 37.333333% {opacity: 0} 43.333333% {opacity: 0} 44% {opacity: 0.600000} 62.666667% {opacity: 0} 68.333333% {opacity: 0} 68.666667% {opacity: 0.600000} 87.666667% {opacity: 0} 100% {opacity: 0} }#eky473lfyjp7_tr {animation: eky473lfyjp7_tr__tr 3000ms linear infinite normal forwards}@keyframes eky473lfyjp7_tr__tr { 0% {transform: translate(19.200000px,19.203312px) rotate(0deg)} 100% {transform: translate(19.200000px,19.203312px) rotate(720deg)} }]]></style>
  <g id="eky473lfyjp2">
    <path id="eky473lfyjp3"
          d="M19.200000,9C25.925790,9,35.400000,15.817140,35.400000,19.203300C35.400000,22.544595,25.925790,29.406600,19.200000,29.406600C12.518895,29.406600,3,22.544595,3,19.203300C3,15.817140,12.518895,9,19.200000,9ZM19.200000,11.103314C14.726505,11.103314,11.100000,14.729819,11.100000,19.203314C11.100000,23.676808,14.726505,27.303314,19.200000,27.303314C23.673495,27.303314,27.300000,23.676808,27.300000,19.203314C27.300000,14.729819,23.673495,11.103314,19.200000,11.103314Z"
          transform="matrix(-1 0 -0 -1 38.40000000000000 38.40660000000000)" opacity="0.6" fill="rgb(50,51,51)"
          fill-rule="evenodd" stroke="none" stroke-width="1"/>
    <path id="eky473lfyjp4"
          d="M19.200000,9C25.925790,9,35.400000,15.817140,35.400000,19.203300C35.400000,22.544595,25.925790,29.406600,19.200000,29.406600C12.518895,29.406600,3,22.544595,3,19.203300C3,15.817140,12.518895,9,19.200000,9ZM19.200000,11.103314C14.726505,11.103314,11.100000,14.729819,11.100000,19.203314C11.100000,23.676808,14.726505,27.303314,19.200000,27.303314C23.673495,27.303314,27.300000,23.676808,27.300000,19.203314C27.300000,14.729819,23.673495,11.103314,19.200000,11.103314Z"
          transform="matrix(0.70710700000000 0.70710700000000 -0.70710700000000 0.70710700000000 19.20230000000000 -7.95193000000000)"
          opacity="0" fill="rgb(50,51,51)" fill-rule="evenodd" stroke="none" stroke-width="1"/>
    <path id="eky473lfyjp5"
          d="M19.200000,9C25.925790,9,35.400000,15.817140,35.400000,19.203300C35.400000,22.544595,25.925790,29.406600,19.200000,29.406600C12.518895,29.406600,3,22.544595,3,19.203300C3,15.817140,12.518895,9,19.200000,9ZM19.200000,11.103314C14.726505,11.103314,11.100000,14.729819,11.100000,19.203314C11.100000,23.676808,14.726505,27.303314,19.200000,27.303314C23.673495,27.303314,27.300000,23.676808,27.300000,19.203314C27.300000,14.729819,23.673495,11.103314,19.200000,11.103314Z"
          transform="matrix(0 1 -1 0 38.40330000000000 0.00330000000000)" opacity="0" fill="rgb(50,51,51)"
          fill-rule="evenodd" stroke="none" stroke-width="1"/>
    <path id="eky473lfyjp6"
          d="M19.200000,9C25.925790,9,35.400000,15.817140,35.400000,19.203300C35.400000,22.544595,25.925790,29.406600,19.200000,29.406600C12.518895,29.406600,3,22.544595,3,19.203300C3,15.817140,12.518895,9,19.200000,9ZM19.200000,11.103314C14.726505,11.103314,11.100000,14.729819,11.100000,19.203314C11.100000,23.676808,14.726505,27.303314,19.200000,27.303314C23.673495,27.303314,27.300000,23.676808,27.300000,19.203314C27.300000,14.729819,23.673495,11.103314,19.200000,11.103314Z"
          transform="matrix(-0.70710700000000 0.70710700000000 -0.70710700000000 -0.70710700000000 46.35520000000000 19.20560000000000)"
          opacity="0" fill="rgb(50,51,51)" fill-rule="evenodd" stroke="none" stroke-width="1"/>
    <g id="eky473lfyjp7_tr" transform="translate(19.200000,19.203312) rotate(0)">
      <path id="eky473lfyjp7"
            d="M19.200000,9C25.925790,9,35.400000,15.817140,35.400000,19.203300C35.400000,22.544595,25.925790,29.406600,19.200000,29.406600C12.518895,29.406600,3,22.544595,3,19.203300C3,15.817140,12.518895,9,19.200000,9ZM19.200000,11.103314C14.726505,11.103314,11.100000,14.729819,11.100000,19.203314C11.100000,23.676808,14.726505,27.303314,19.200000,27.303314C23.673495,27.303314,27.300000,23.676808,27.300000,19.203314C27.300000,14.729819,23.673495,11.103314,19.200000,11.103314Z"
            transform="translate(-19.200000,-19.203312)" fill="rgb(50,51,51)" fill-rule="evenodd" stroke="none"
            stroke-width="1"/>
    </g>
    <path id="eky473lfyjp8"
          d="M22.228800,14.035871L22.417840,14.151703C21.815537,14.072928,21.184599,14.264905,20.721868,14.727636C19.931083,15.518466,19.931083,16.800606,20.721868,17.591436C21.512698,18.382221,22.794839,18.382221,23.585669,17.591436C24.065870,17.111234,24.254488,16.449883,24.151520,15.827375C25.739506,18.147910,25.500226,21.338015,23.433263,23.396981C21.095692,25.725461,17.305747,25.725461,14.968177,23.396981C12.630607,21.068455,12.630607,17.293225,14.968177,14.964700C16.936657,13.003837,19.935077,12.694227,22.228800,14.035871Z"
          fill="rgb(50,51,51)" fill-rule="evenodd" stroke="none" stroke-width="1"/>
  </g>
</svg>
