<?xml version="1.0" encoding="UTF-8"?>
<svg width="22px" height="22px" viewBox="0 0 22 22" version="1.1" xmlns="http://www.w3.org/2000/svg" xmlns:xlink="http://www.w3.org/1999/xlink">
    <title>按钮/状态/赞/灰0@3x</title>
    <g id="按钮/状态/赞/灰0" stroke="none" stroke-width="1" fill="none" fill-rule="evenodd">
        <g id="Like-ICON">
            <rect id="Rectangle-5" x="0" y="0" width="22" height="22"></rect>
            <g id="Group-2" transform="translate(3.000000, 3.000000)" fill="#ADADAD">
                <path d="M3.50461102,5 L1.49538898,5 C0.60923809,5 -0.0382888624,5.75594685 0.0702766019,6.62447056 L0.945167645,13.6235989 C1.04151721,14.3943954 1.72233105,15 2.50468445,15 L3.49531555,15 C4.3359305,15 5,14.3306001 5,13.4995642 L5,6.50043583 C5,5.68047891 4.33259633,5 3.50461102,5 Z M3.50461102,6 C3.7782068,6 4,6.23079681 4,6.50043583 L4,13.4995642 C4,13.7759472 3.78596497,14 3.49531555,14 L2.50468445,14 C2.22595492,14 1.9711504,13.7692032 1.93744552,13.4995642 L1.06255448,6.50043583 C1.02800659,6.22405275 1.2157526,6 1.49538898,6 L3.50461102,6 Z" id="Combined-Shape" fill-rule="nonzero"></path>
                <circle id="Oval-2" cx="2.5" cy="7.5" r="1"></circle>
                <path d="M12.1660465,2.62694657 C12.1660465,3.44308167 11.7904582,4.82525583 11.4160989,6.00020661 L13.9914698,6.00008073 C15.1007504,6.00008073 15.7821577,6.87144118 15.5158558,7.93663803 L14.4841442,12.0634427 C14.2167587,13.1329738 13.1125667,14 12.000385,14 L4,14 L4,6.00008073 L6.16841562,5.99990961 C7.68613858,4.48700603 8.45305935,1.71656687 8.71224102,1 C11.2003764,1.33171252e-12 12.1660465,1 12.1660465,2.62694657 Z M11.1660465,2.62694657 C11.1660465,1.64914706 10.8207669,1.33526766 9.58947801,1.74161451 L9.508,1.769 L9.2590447,2.49700004 C9.02153446,3.16165029 8.77098243,3.77219661 8.48270259,4.3562101 C8.07468772,5.18278955 7.62037484,5.89401208 7.10101632,6.46974919 L6.87439705,6.70813995 L6.58173068,6.99987699 L5,7 L5,12.999 L12.000385,13 C12.6074765,13 13.2632804,12.5191874 13.4754964,11.9451894 L13.5140023,11.8209048 L14.5457139,7.6941001 C14.6458978,7.29336839 14.4796435,7.04109528 14.0927989,7.00465523 L13.9915187,7.00008073 L10.0479289,7.00027348 L10.463293,5.69662645 C10.8713321,4.4159694 11.1298746,3.35317208 11.1625334,2.74924757 L11.1660465,2.62694657 Z" id="Combined-Shape" fill-rule="nonzero"></path>
            </g>
            <rect id="Rectangle-8" fill="#ADADAD" x="14" y="11.5" width="4" height="1" rx="0.5"></rect>
            <rect id="Rectangle-8-Copy" fill="#ADADAD" x="14.4000015" y="13.5" width="3" height="1" rx="0.5"></rect>
        </g>
    </g>
</svg>