<?xml version="1.0" encoding="UTF-8"?>
<svg width="22px" height="22px" viewBox="0 0 22 22" version="1.1" xmlns="http://www.w3.org/2000/svg" xmlns:xlink="http://www.w3.org/1999/xlink">
    <title>38B4DC30-EA8D-4E1C-BAD0-44A492017928</title>
    <g id="页面-1" stroke="none" stroke-width="1" fill="none" fill-rule="evenodd">
        <g id="投票-纯图片-未选择" transform="translate(-335.000000, -1503.000000)">
            <g id="编组-4备份" transform="translate(17.000000, 1503.000000)">
                <g id="按钮/状态/赞/灰1" transform="translate(318.000000, 0.000000)">
                    <g id="按钮/状态/赞/22/灰1">
                        <g id="按钮/是否/22/赞/灰/1">
                            <g id="Like-ICON">
                                <rect id="Rectangle-5" x="0" y="0" width="22" height="22"></rect>
                                <g id="Group-2" transform="translate(4.000000, 3.000000)">
                                    <path d="M2.96574438,5.39511225 L-0.521727447,6.10977869 L1.12156865,14.6554749 L3.52432685,13.8513461 L2.96574438,5.39511225 Z" id="Combined-Shape" stroke="#333333" fill="#4687D7"></path>
                                    <circle id="Oval-2" fill="#333333" cx="1.5" cy="7.5" r="1"></circle>
                                    <path d="M10.6660465,2.62694657 C10.6660465,2.26219985 10.6133964,1.93393278 10.4835226,1.66966037 C10.3855062,1.4702127 10.2407636,1.3118947 10.037317,1.21605934 C9.59700305,1.00864543 8.95327791,1.10858528 8.00540726,1.69679075 C7.60801074,2.88564614 6.77326981,5.21534661 5.36873665,6.4998938 L3.5,6.50004127 L3.5,13.5 L11.000385,13.5 C11.4471341,13.5 11.8896885,13.3206833 12.2492479,13.0403392 C12.6098625,12.7591723 12.8913403,12.3731012 12.9990732,11.9421737 L14.0307848,7.81536907 C14.1211791,7.45379578 14.0659779,7.11872477 13.8757835,6.87710457 C13.6848281,6.63451771 13.3694396,6.50008073 12.9914698,6.50008073 L9.72687958,6.50024029 C10.1325517,5.28323663 10.6660465,3.5652024 10.6660465,2.62694657 Z" id="Combined-Shape" stroke="#333333"></path>
                                </g>
                                <rect id="Rectangle-8" fill="#333333" x="14" y="11.5" width="4" height="1" rx="0.5"></rect>
                                <rect id="Rectangle-8-Copy" fill="#333333" x="14.4000015" y="13.5" width="3" height="1" rx="0.5"></rect>
                            </g>
                        </g>
                    </g>
                </g>
            </g>
        </g>
    </g>
</svg>